<svg width="28" height="28" viewBox="0 0 28 28" fill="none" xmlns="http://www.w3.org/2000/svg">
<path d="M13.9974 0.664062C6.6374 0.664062 0.664062 6.6374 0.664062 13.9974C0.664062 21.3574 6.6374 27.3307 13.9974 27.3307C21.3574 27.3307 27.3307 21.3574 27.3307 13.9974C27.3307 6.6374 21.3574 0.664062 13.9974 0.664062ZM13.9974 24.6641C8.1174 24.6641 3.33073 19.8774 3.33073 13.9974C3.33073 8.1174 8.1174 3.33073 13.9974 3.33073C19.8774 3.33073 24.6641 8.1174 24.6641 13.9974C24.6641 19.8774 19.8774 24.6641 13.9974 24.6641ZM20.1174 8.10406L11.3307 16.8907L7.8774 13.4507L5.9974 15.3307L11.3307 20.6641L21.9974 9.9974L20.1174 8.10406Z" fill="#0B6E4F"/>
</svg>
